<?xml version="1.0" encoding="UTF-8"?>
<svg version="1.1" xmlns="http://www.w3.org/2000/svg" width="250" height="107">
<path d="M0 0 C2.041875 0.061875 2.041875 0.061875 4.125 0.125 C4.125 5.075 4.125 10.025 4.125 15.125 C6.765 15.125 9.405 15.125 12.125 15.125 C12.125 19.415 12.125 23.705 12.125 28.125 C9.485 28.125 6.845 28.125 4.125 28.125 C4.26383419 31.56282031 4.41227054 35.00016029 4.5625 38.4375 C4.60181641 39.41396484 4.64113281 40.39042969 4.68164062 41.39648438 C4.72353516 42.33427734 4.76542969 43.27207031 4.80859375 44.23828125 C4.84525146 45.10235596 4.88190918 45.96643066 4.91967773 46.85668945 C5.05247354 49.2897826 5.05247354 49.2897826 6.125 52.125 C9.53770242 53.64175663 12.56669126 52.85283588 16.125 52.125 C15.63 50.3615625 15.63 50.3615625 15.125 48.5625 C13.28348871 40.99773061 13.89341969 34.21502234 17.125 27.125 C21.90302785 20.09525787 27.3655727 15.36349339 35.72265625 13.56640625 C44.19161378 12.41100698 51.329179 13.97118495 58.4375 18.75 C63.42148633 22.77552742 66.12613637 28.12840912 68.125 34.125 C68.83632654 44.12460961 68.28346999 51.47875881 61.9375 59.375 C56.14655247 65.60669618 49.70991681 67.81933888 41.375 68.375 C34.33982094 68.26860788 28.27486978 65.94262011 23.125 61.125 C22.465 61.723125 21.805 62.32125 21.125 62.9375 C15.60453783 66.962837 10.01694716 68.97137948 3.125 68.125 C-2.5458112 66.33117197 -6.61381054 64.28854998 -9.875 59.125 C-11.16066729 56.55366541 -10.99509778 54.727829 -10.98852539 51.84912109 C-10.98844986 50.7481308 -10.98837433 49.6471405 -10.98829651 48.51278687 C-10.98313522 47.32005157 -10.97797394 46.12731628 -10.97265625 44.8984375 C-10.9712413 43.68048492 -10.96982635 42.46253235 -10.96836853 41.20767212 C-10.96275639 37.3050901 -10.95020179 33.40256477 -10.9375 29.5 C-10.93248657 26.85937583 -10.92792339 24.21875076 -10.92382812 21.578125 C-10.91278301 15.09373055 -10.89603302 8.60936932 -10.875 2.125 C-7.08457649 0.80679014 -4.02572462 -0.12199166 0 0 Z M31.125 32.125 C28.58751231 36.16912101 27.81217998 39.10110997 28.5625 43.75 C29.92402786 48.61497152 31.81636778 50.52356168 36.125 53.125 C40.33474868 54.34965416 42.59363579 54.27810494 46.8125 53.0625 C50.69581498 50.79112709 52.20806306 49.18890632 54.125 45.125 C54.79324913 41.25219255 54.51286129 38.02320509 52.9375 34.375 C49.30859175 29.82643753 49.30859175 29.82643753 44.01171875 27.73828125 C38.6215906 27.47556912 35.19374984 28.34687515 31.125 32.125 Z " fill="#202F3F" transform="translate(10.875,-0.125)"/>
<path d="M0 0 C6.64156274 6.64156274 8.53913056 13.1538441 8.5690918 22.41186523 C8.40902216 30.99676113 5.24383416 37.25616584 -0.75 43.25 C-5.89845447 46.86783287 -10.44861136 48.39422616 -16.6875 48.375 C-17.52152344 48.37757812 -18.35554688 48.38015625 -19.21484375 48.3828125 C-21.81216123 48.24674348 -24.21580044 47.82121493 -26.75 47.25 C-26.65912109 47.81920166 -26.56824219 48.38840332 -26.47460938 48.97485352 C-26.06085316 51.586557 -25.65537373 54.19948286 -25.25 56.8125 C-25.10691406 57.70775391 -24.96382812 58.60300781 -24.81640625 59.52539062 C-22.81002336 72.56687943 -22.81002336 72.56687943 -25.578125 77.5234375 C-26.37734375 78.54695313 -27.1765625 79.57046875 -28 80.625 C-29.18335938 82.18347656 -29.18335938 82.18347656 -30.390625 83.7734375 C-32.7933941 86.29554944 -33.51287127 86.64677122 -36.75 87.25 C-41.76017191 82.555934 -46.36884034 77.53459075 -47.00079346 70.43084717 C-46.74771258 62.58534006 -45.23794447 54.88877744 -43.8125 47.1875 C-43.22295445 43.6971689 -42.65000647 40.20450388 -42.08213806 36.71058655 C-41.7246863 34.548655 -41.35144719 32.38925877 -40.96046448 30.23313904 C-40.78796677 29.25764603 -40.61546906 28.28215302 -40.43774414 27.27709961 C-40.28100723 26.42442001 -40.12427032 25.57174042 -39.96278381 24.69322205 C-39.47211013 19.05921845 -41.50653418 15.74900098 -44.75 11.25 C-43.26261554 7.88421763 -41.32625007 5.42087508 -38.875 2.6875 C-38.19695312 1.92308594 -37.51890625 1.15867187 -36.8203125 0.37109375 C-26.24427125 -10.46435983 -11.69561824 -7.44266615 0 0 Z M-25.75 9.25 C-30.08787841 14.46883572 -31.08553486 19.73536304 -30.5625 26.375 C-30.32007548 28.33705262 -30.05911952 30.29734405 -29.75 32.25 C-29.09 31.59 -28.43 30.93 -27.75 30.25 C-27.234375 30.724375 -26.71875 31.19875 -26.1875 31.6875 C-22.93300025 33.77371779 -20.60984185 34.1191579 -16.75 34.25 C-13.14634532 33.33381661 -10.75305735 32.50310316 -8.38671875 29.546875 C-6.01065051 25.39896205 -5.16939437 21.86124537 -6.0625 17.14453125 C-7.46297754 13.28526075 -10.04313404 10.10343298 -13.75 8.25 C-19.8630724 7.92329668 -19.8630724 7.92329668 -25.75 9.25 Z M-28.75 37.25 C-27.75 39.25 -27.75 39.25 -27.75 39.25 Z M-27.75 44.25 C-26.75 46.25 -26.75 46.25 -26.75 46.25 Z " fill="#202F3F" transform="translate(122.75,19.75)"/>
<path d="M0 0 C4.95 0 9.9 0 15 0 C18.2370701 6.18251226 20.81584871 12.46385301 23.25 19 C23.61351562 19.96550781 23.97703125 20.93101563 24.3515625 21.92578125 C25.23822626 24.28244018 26.12094372 26.64049524 27 29 C30.2370701 22.81748774 32.81584871 16.53614699 35.25 10 C35.61351562 9.03449219 35.97703125 8.06898437 36.3515625 7.07421875 C37.2382159 4.71758735 38.1196509 2.3589937 39 0 C44.28 0 49.56 0 55 0 C54.28771006 4.27373966 53.72353672 7.12188312 52.15820312 10.96386719 C51.59256653 12.36496735 51.59256653 12.36496735 51.01550293 13.79437256 C50.40454773 15.28061127 50.40454773 15.28061127 49.78125 16.796875 C49.36331177 17.82685608 48.94537354 18.85683716 48.51477051 19.91802979 C47.18224663 23.19772018 45.84114825 26.47382825 44.5 29.75 C43.59711137 31.96983054 42.69476151 34.18988029 41.79296875 36.41015625 C40.145754 40.45930931 38.49743737 44.50799482 36.84179688 48.55371094 C36.50950073 49.36612244 36.17720459 50.17853394 35.83483887 51.01556396 C35.26783182 52.36335604 34.6539175 53.69216501 34 55 C29.71 55 25.42 55 21 55 C18.03438881 49.26140857 15.48994137 43.47701347 13.14453125 37.4609375 C12.79742599 36.57644928 12.45032074 35.69196106 12.09269714 34.78067017 C11.36560882 32.92419814 10.64048157 31.06695696 9.91723633 29.20898438 C8.81190807 26.37348152 7.69633424 23.54215333 6.58007812 20.7109375 C5.87177124 18.89868149 5.164068 17.08618942 4.45703125 15.2734375 C4.12476028 14.4326767 3.79248932 13.59191589 3.45014954 12.72567749 C3.1428038 11.93110138 2.83545807 11.13652527 2.51879883 10.31787109 C2.24884598 9.62696381 1.97889313 8.93605652 1.70075989 8.22421265 C1 6 1 6 0 0 Z " fill="#00B04E" transform="translate(180,13)"/>
<path d="M0 0 C3 2.625 3 2.625 5 5 C5 5.66 5 6.32 5 7 C3.171875 8.76171875 3.171875 8.76171875 0.75 10.6875 C-0.03890625 11.33074219 -0.8278125 11.97398438 -1.640625 12.63671875 C-4 14 -4 14 -6.1875 13.7734375 C-8 13 -8 13 -9.75 11.9375 C-13.15577096 10.51842876 -16.41504646 10.30153987 -20 11 C-23.62450511 13.75777563 -26.07933414 16.49896692 -27 21 C-26.61979865 25.32188067 -25.75075451 28.88777109 -23.3125 32.5 C-20.09935307 34.58420341 -17.82724692 34.93513141 -14 35 C-11.6485148 34.04346365 -9.31254012 33.04718798 -7 32 C-3.55164213 32.38160902 -1.44016998 33.95520018 1.25 36.0625 C1.95640625 36.61035156 2.6628125 37.15820312 3.390625 37.72265625 C3.92171875 38.14417969 4.4528125 38.56570312 5 39 C2.95266818 43.88449723 -0.42752655 45.64296906 -5 48 C-13.14836783 51.05563794 -19.69445794 50.76377613 -27.5390625 47.32421875 C-34.4226035 43.62021812 -39.6176186 38.54193884 -42 31 C-43.8771198 22.40696271 -42.98819529 14.87171051 -38.4375 7.3125 C-33.97490173 1.10177929 -27.67775808 -3.35463711 -20.09765625 -4.81640625 C-12.6935852 -5.46443481 -6.19906575 -4.15103738 0 0 Z " fill="#00B04E" transform="translate(175,18)"/>
<path d="M0 0 C2.8125 0.875 2.8125 0.875 4.8125 2.875 C5.36489643 9.83519496 5.36489643 9.83519496 3.75 12.875 C0.64382725 14.47818593 -1.76740979 14.30251128 -5.1875 13.875 C-7.80071414 11.68327201 -8.12859015 10.22845908 -8.6875 6.875 C-8.1875 3.875 -8.1875 3.875 -6.0625 1.4375 C-3.1875 -0.125 -3.1875 -0.125 0 0 Z M-5.1875 4.875 C-5.1875 6.525 -5.1875 8.175 -5.1875 9.875 C-4.8575 9.875 -4.5275 9.875 -4.1875 9.875 C-4.1875 8.225 -4.1875 6.575 -4.1875 4.875 C-4.5175 4.875 -4.8475 4.875 -5.1875 4.875 Z M-2.1875 5.875 C-1.8575 6.865 -1.5275 7.855 -1.1875 8.875 C-0.8575 7.885 -0.5275 6.895 -0.1875 5.875 C-0.8475 5.875 -1.5075 5.875 -2.1875 5.875 Z M1.8125 5.875 C2.8125 8.875 2.8125 8.875 2.8125 8.875 Z " fill="#202F3F" transform="translate(245.1875,13.125)"/>
</svg>
