<svg xmlns="http://www.w3.org/2000/svg" fill="none" viewBox="0 0 100 100"><path fill="#1c3c3c" d="M58.708 63.363c-.279.458-1.116.483-1.833.062a1.94 1.94 0 0 1-.792-.833c-.133-.296-.137-.575-.008-.788.146-.237.45-.358.808-.358.321 0 .688.096 1.025.296.709.42 1.08 1.167.8 1.62M100 50c0 13.784-11.4 25-25.412 25H25.417C11.4 75 0 63.788 0 50s11.4-25 25.413-25h49.17C88.6 25 100 36.217 100 50M48.975 62.542c.4-.483-1.45-1.83-1.83-2.32-.766-.822-.77-2-1.29-2.96-1.267-2.89-2.726-5.762-4.763-8.208-2.159-2.679-4.817-4.895-7.15-7.408-1.738-1.754-2.2-4.25-3.73-6.142-2.112-3.062-8.783-3.9-9.762.43.004.137-.037.22-.158.308a6.5 6.5 0 0 0-1.425 1.363c-.992 1.354-1.142 3.654.091 4.875.042-.642.063-1.25.584-1.709.954.809 2.395 1.092 3.5.488 2.45 3.437 1.841 8.196 3.783 11.9.542.875 1.08 1.77 1.767 2.537.562.854 2.491 1.867 2.604 2.659.02 1.358-.142 2.845.766 3.983.426.854-.625 1.708-1.466 1.604-1.1.146-2.438-.73-3.4-.192-.342.363-1.004-.037-1.3.467-.1.258-.65.625-.321.875.362-.27.7-.554 1.192-.396-.075.396.241.45.491.563-.008.266-.166.541.042.766.242-.241.383-.583.77-.679 1.276 1.671 2.576-1.696 5.334-.179-.558-.025-1.054.042-1.433.496-.096.1-.175.22-.008.354 1.491-.946 1.483.325 2.45-.067.741-.383 1.483-.858 2.366-.725-.858.246-.892.925-1.396 1.5-.083.084-.125.188-.029.334 1.788-.15 1.934-.734 3.375-1.45 1.075-.646 2.146.92 3.075.029.209-.192.488-.125.742-.154-.325-1.709-3.9.312-3.846-1.975 1.15-.771.887-2.246.967-3.434 1.32.721 2.791 1.142 4.091 1.834.654 1.037 1.68 2.412 3.05 2.32l.105-.3c.416.071.95.338 1.179-.179.616.642 1.529.609 2.337.446.6-.483-1.125-1.166-1.358-1.658zm18.55-8.067-2.72-3.612c-2.376 2.675-3.96 3.975-3.988 4-.017.012-1.53 1.462-2.909 2.708-1.354 1.221-2.425 2.184-2.97 3.242a3.18 3.18 0 0 0-.017 2.441c.354.834 1.075 1.426 2.146 1.763.32.1.625.142.92.142 1.93 0 3.196-1.905 3.205-1.917.016-.025 1.658-2.333 3.654-5.242.666-.966 1.425-1.991 2.679-3.525m12.792 8.321a2.16 2.16 0 0 0-.559-1.446l-.337-.375-9.313-10.379a157 157 0 0 1-5.654-6.783l-.341-.7V41.88a3.3 3.3 0 0 0-.271-1.309l-.725-1.7q-.02-.04-.013-.079l.03-.238q.002-.056.053-.095a8.66 8.66 0 0 1 5.942-1.955c.43.017.5-.208.517-.308.058-.475-1.042-1.029-2.058-1.237-1.405-.28-5.134-1.03-8.113.895l-.025.017c-1.925 1.584-3.475 2.792-3.492 2.808l-.033.034a1.98 1.98 0 0 0-.437 1.487c.083.53-.192.721-.209.73-.017.012-.4.25-.792-.021-.479-.35-1.308.25-1.479.387l-1.25 1.059-.025.025c-.025.024-.562.641.159 1.633.62.858.837 1.146 1.375 1.804.55.667 1.533 1.517 1.587 1.558.025.021.625.471 1.459-.154a32 32 0 0 0 1.224-.979c.042-.037.442-.354.459-.83v-.358c-.013-.333-.013-.433.241-.591.125 0 .496.133.817.291a3.46 3.46 0 0 0 1.567.434c.458.058.966.575 1.142.783.016.017 1.57 1.625 3.758 4.434.416.537 1.95 2.541 2.367 3.1l2.895 3.879c1.975 2.641 4.184 5.604 5.188 6.937.333.442.82.742 1.37.846l.376.07a2.18 2.18 0 0 0 2.125-.75l.016-.028c.3-.38.461-.85.459-1.334v-.333zm1.75-23.725-.438-.425a.647.647 0 0 0-.946.042l-2.72 3.166a.46.46 0 0 1-.309.159l-.966.096a.47.47 0 0 1-.346-.105l-1.546-1.291a.46.46 0 0 1-.167-.33l-.02-.762a.45.45 0 0 1 .104-.304l2.65-3.138a.625.625 0 0 0 0-.816l-.271-.309a.65.65 0 0 0-.713-.183c-1.142.418-2.26.902-3.346 1.45-1.612.854-2.733 2.213-2.925 3.542-.141.975-.083 2.583-.033 3.45.018.345-.061.689-.23.991-.207.38-.574.988-1.128 1.721-.288.384-.467.53-.709.813l2.996 3.466c.721-.829 1.354-1.458 1.904-2.062 1.004-1.1 1.317-1.112 2.154-1.137.517-.021 1.225-.042 2.346-.317 3.059-.75 4.025-4.008 4.067-4.154l.758-2.959a.63.63 0 0 0-.166-.6zm-47.025 20.65c-.334 1.263-.438 3.417-2.109 3.48-.137.728.513 1.003 1.105.77.587-.266.866.209 1.066.684.904.129 2.25-.3 2.296-1.355-1.354-.766-1.77-2.229-2.362-3.583z"/></svg>